<svg xmlns="http://www.w3.org/2000/svg" xmlns:xlink="http://www.w3.org/1999/xlink" width="500" zoomAndPan="magnify" viewBox="0 0 375 374.999991" height="500" preserveAspectRatio="xMidYMid meet" version="1.0"><defs><g/><clipPath id="c02bbbd634"><path d="M 252.300781 207.300781 L 271.902344 207.300781 L 271.902344 226.902344 L 252.300781 226.902344 Z M 252.300781 207.300781 " clip-rule="nonzero"/></clipPath><clipPath id="1526a01ce1"><path d="M 262.101562 207.300781 C 256.691406 207.300781 252.300781 211.6875 252.300781 217.101562 C 252.300781 222.515625 256.691406 226.902344 262.101562 226.902344 C 267.515625 226.902344 271.902344 222.515625 271.902344 217.101562 C 271.902344 211.6875 267.515625 207.300781 262.101562 207.300781 Z M 262.101562 207.300781 " clip-rule="nonzero"/></clipPath></defs><g fill="#000000" fill-opacity="1"><g transform="translate(121.168842, 226.281742)"><g><path d="M 2.859375 0 L 2.859375 -70.6875 L 17.421875 -70.6875 L 17.421875 0 Z M 2.859375 0 "/></g></g></g><g fill="#000000" fill-opacity="1"><g transform="translate(136.957149, 226.281742)"><g><path d="M 20.296875 0.65625 C 8.347656 0.65625 2.375 -5.535156 2.375 -17.921875 L 2.375 -41.96875 C 2.375 -47.644531 3.96875 -52.160156 7.15625 -55.515625 C 10.34375 -58.867188 14.722656 -60.546875 20.296875 -60.546875 C 25.859375 -60.546875 30.234375 -58.867188 33.421875 -55.515625 C 36.609375 -52.160156 38.203125 -47.644531 38.203125 -41.96875 L 38.203125 -17.921875 C 38.203125 -5.535156 32.234375 0.65625 20.296875 0.65625 Z M 20.296875 -10.390625 C 21.429688 -10.390625 22.269531 -10.796875 22.8125 -11.609375 C 23.363281 -12.429688 23.640625 -13.550781 23.640625 -14.96875 L 23.640625 -44.265625 C 23.640625 -47.753906 22.523438 -49.5 20.296875 -49.5 C 18.054688 -49.5 16.9375 -47.753906 16.9375 -44.265625 L 16.9375 -14.96875 C 16.9375 -13.550781 17.207031 -12.429688 17.75 -11.609375 C 18.300781 -10.796875 19.148438 -10.390625 20.296875 -10.390625 Z M 20.296875 -10.390625 "/></g></g></g><g fill="#000000" fill-opacity="1"><g transform="translate(173.115257, 226.281742)"><g><path d="M 18.984375 8.75 C 14.722656 8.75 11.378906 8.40625 8.953125 7.71875 C 6.523438 7.039062 4.140625 5.75 1.796875 3.84375 L 6.703125 -4.421875 C 10.191406 -2.347656 13.65625 -1.3125 17.09375 -1.3125 C 19.332031 -1.3125 21.023438 -2.019531 22.171875 -3.4375 C 23.316406 -4.851562 23.890625 -6.789062 23.890625 -9.25 L 23.890625 -12.515625 C 22.742188 -8.421875 19.71875 -6.375 14.8125 -6.375 C 10.71875 -6.375 7.703125 -7.765625 5.765625 -10.546875 C 3.828125 -13.328125 2.859375 -17.039062 2.859375 -21.6875 L 2.859375 -44.171875 C 2.859375 -49.460938 3.742188 -53.515625 5.515625 -56.328125 C 7.296875 -59.140625 10.394531 -60.546875 14.8125 -60.546875 C 17.375 -60.546875 19.40625 -59.90625 20.90625 -58.625 C 22.40625 -57.34375 23.398438 -55.523438 23.890625 -53.171875 L 23.890625 -59.890625 L 38.53125 -59.890625 L 38.53125 -10.140625 C 38.53125 -3.429688 36.972656 1.390625 33.859375 4.328125 C 30.753906 7.273438 25.796875 8.75 18.984375 8.75 Z M 20.53125 -17.1875 C 22.769531 -17.1875 23.890625 -19.203125 23.890625 -23.234375 L 23.890625 -44.59375 C 23.890625 -45.789062 23.5625 -46.929688 22.90625 -48.015625 C 22.25 -49.109375 21.429688 -49.65625 20.453125 -49.65625 C 19.203125 -49.65625 18.359375 -49.203125 17.921875 -48.296875 C 17.484375 -47.398438 17.265625 -46.164062 17.265625 -44.59375 L 17.265625 -23.234375 C 17.265625 -21.429688 17.484375 -19.972656 17.921875 -18.859375 C 18.359375 -17.742188 19.226562 -17.1875 20.53125 -17.1875 Z M 20.53125 -17.1875 "/></g></g></g><g fill="#000000" fill-opacity="1"><g transform="translate(209.846011, 226.281742)"><g><path d="M 20.296875 0.65625 C 8.347656 0.65625 2.375 -5.535156 2.375 -17.921875 L 2.375 -41.96875 C 2.375 -47.644531 3.96875 -52.160156 7.15625 -55.515625 C 10.34375 -58.867188 14.722656 -60.546875 20.296875 -60.546875 C 25.859375 -60.546875 30.234375 -58.867188 33.421875 -55.515625 C 36.609375 -52.160156 38.203125 -47.644531 38.203125 -41.96875 L 38.203125 -17.921875 C 38.203125 -5.535156 32.234375 0.65625 20.296875 0.65625 Z M 20.296875 -10.390625 C 21.429688 -10.390625 22.269531 -10.796875 22.8125 -11.609375 C 23.363281 -12.429688 23.640625 -13.550781 23.640625 -14.96875 L 23.640625 -44.265625 C 23.640625 -47.753906 22.523438 -49.5 20.296875 -49.5 C 18.054688 -49.5 16.9375 -47.753906 16.9375 -44.265625 L 16.9375 -14.96875 C 16.9375 -13.550781 17.207031 -12.429688 17.75 -11.609375 C 18.300781 -10.796875 19.148438 -10.390625 20.296875 -10.390625 Z M 20.296875 -10.390625 "/></g></g></g><g clip-path="url(#c02bbbd634)"><g clip-path="url(#1526a01ce1)"><path fill="#000000" d="M 252.300781 207.300781 L 271.902344 207.300781 L 271.902344 226.902344 L 252.300781 226.902344 Z M 252.300781 207.300781 " fill-opacity="1" fill-rule="nonzero"/></g></g></svg>